<?xml version="1.0" standalone="no"?><!DOCTYPE svg PUBLIC "-//W3C//DTD SVG 1.1//EN" "http://www.w3.org/Graphics/SVG/1.1/DTD/svg11.dtd"><svg t="1540212706339" class="icon" style="" viewBox="0 0 1024 1024" version="1.1" xmlns="http://www.w3.org/2000/svg"  xmlns:xlink="http://www.w3.org/1999/xlink" width="200" height="200"><defs><style type="text/css"></style></defs><path d="M512 917.333c-10.667 0-21.333-2.133-32-8.533l-100.267-59.733c-14.933-8.534-8.533-10.667-2.133-12.8 19.2-6.4 23.467-8.534 44.8-21.334 2.133-2.133 4.267 0 6.4 0l76.8 44.8c2.133 2.134 6.4 2.134 8.533 0l296.534-170.666c2.133-2.134 4.266-4.267 4.266-8.534v-339.2c0-4.266-2.133-6.4-4.266-8.533L514.133 162.133c-2.133-2.133-6.4-2.133-8.533 0L209.067 332.8c-2.134 2.133-4.267 4.267-4.267 8.533v341.334c0 4.266 2.133 6.4 4.267 8.533l81.066 46.933c44.8 21.334 70.4-4.266 70.4-29.866v-339.2c0-4.267 4.267-8.534 8.534-8.534h38.4c4.266 0 8.533 4.267 8.533 8.534v339.2C416 768 384 800 328.533 800c-17.066 0-29.866 0-68.266-19.2l-76.8-44.8c-19.2-10.667-29.867-29.867-29.867-53.333V341.333c0-21.333 12.8-42.666 32-53.333l296.533-170.667c19.2-10.666 44.8-10.666 61.867 0L840.533 288c19.2 10.667 32 32 32 53.333v341.334c0 21.333-12.8 42.666-32 53.333L544 906.667c-10.667 8.533-21.333 10.666-32 10.666z m238.933-337.066c0-64-42.666-81.067-134.4-93.867-91.733-12.8-102.4-19.2-102.4-40.533 0-17.067 8.534-42.667 76.8-42.667 61.867 0 83.2 12.8 93.867 53.333 0 4.267 4.267 6.4 8.533 6.4h38.4c2.134 0 4.267 0 6.4-2.133 2.134-2.133 2.134-4.267 2.134-6.4-6.4-70.4-53.334-104.533-149.334-104.533-85.333 0-134.4 36.266-134.4 96 0 64 51.2 83.2 132.267 91.733 98.133 8.533 104.533 23.467 104.533 42.667 0 34.133-27.733 46.933-89.6 46.933-78.933 0-96-19.2-102.4-59.733 0-4.267-4.266-6.4-8.533-6.4h-38.4c-4.267 0-8.533 4.266-8.533 8.533 0 49.067 27.733 108.8 157.866 108.8 93.867 2.133 147.2-34.133 147.2-98.133z" fill="#F15533"></path></svg>